<svg id="img-logo" xmlns="http://www.w3.org/2000/svg" viewBox="0 0 303.7 42.5">
<style>
#img-logo{fill:#b8d318;}
</style>
<path d="M284.1 26.4h5.6c6.3 0 9.5-2.7 9.5-8.2v-10c0-5.5-3.2-8.2-9.5-8.2h-36.3v42.4h9.7v-16h9.4l17.1 16h14.1l-19.6-16zm-21-7.3V7.3h22.2c1.1-.1 2.2.1 3.2.5.9.7 1.4 1.8 1.3 2.9v5.1c.1 1.1-.3 2.2-1.3 2.9-1 .4-2.1.6-3.2.5l-22.2-.1z"/>
<path d="M239.7 7.7V0h-40.6v42.4h7.6v.1h33v-7.7h-30.8V24.1h30.8v-7.7h-30.8V7.7z"/>
<path d="M175.4 0h-25.3c-4 0-6.8.7-8.3 2s-2.2 4-2.2 8v22.3c0 4 .7 6.6 2.2 8s4.3 2.1 8.3 2.1h25.3c4 0 6.8-.7 8.3-2.1s2.3-4 2.3-8v-5l-9.9-2v9.1h-26.6V7.6h26.6v8l9.9-1.5V10c0-4-.8-6.6-2.3-8s-4.2-2-8.3-2z"/>
<path d="M115.7 0h9.8v42.4h-9.8z"/>
<path d="M85.9 26.4h5.6c6.3 0 9.5-2.7 9.5-8.2v-10c0-5.4-3.2-8.2-9.5-8.2H55.2v42.4h9.7v-16h9.4l17.1 16h14.1l-19.6-16zm-21-7.3V7.3H87c1.1-.1 2.2.1 3.2.5.9.7 1.4 1.8 1.3 2.9v5.1c.1 1.1-.3 2.2-1.3 2.9-1 .4-2.1.6-3.2.5l-22.1-.1z"/>
<path d="M36.3 0H0v42.4h9.7V25.9h26.6c6.3 0 9.5-2.7 9.5-8.2V8.2c0-5.4-3.2-8.2-9.5-8.2zm0 15.2c.1 1.1-.3 2.2-1.2 2.9-1 .4-2.1.6-3.2.5H9.7V7.3h22.2c1.1-.1 2.2.1 3.2.5.9.7 1.4 1.8 1.2 2.9v4.5z"/>
</svg>